<svg xmlns="http://www.w3.org/2000/svg" viewBox="0 0 192 192"><rect width="192" height="192" rx="42" fill="#f6efdf"/><path d="M96 15C50 15 26 67 26 111c0 42 29 66 70 66s70-24 70-66C166 67 142 15 96 15Z" fill="#efb298" stroke="#af765e" stroke-width="4"/><rect x="49" y="55" width="94" height="80" rx="9" fill="#c8d19f" stroke="#9e8063" stroke-width="6"/><path d="M78 77h36v8h8v32H70V85h8Z" fill="#33422b"/><path d="M78 86h36v22H78Z" fill="#c8d19f"/><path d="M84 91h6v8h-6m18-8h6v8h-6m-11 6h11v3H91" fill="#33422b"/><g fill="#f3d9a2" stroke="#865d44" stroke-width="3"><circle cx="65" cy="152" r="9"/><circle cx="96" cy="158" r="9"/><circle cx="127" cy="152" r="9"/></g></svg>
